<?xml version="1.0" encoding="UTF-8" standalone="no"?>
<!DOCTYPE svg PUBLIC "-//W3C//DTD SVG 1.1//EN"
 "http://www.w3.org/Graphics/SVG/1.1/DTD/svg11.dtd">
<!-- Generated by graphviz version 2.48.0 (20210717.1556)
 -->
<!-- Title: structs Pages: 1 -->
<svg width="345pt" height="1144pt"
 viewBox="0.00 0.00 344.50 1144.00" xmlns="http://www.w3.org/2000/svg" xmlns:xlink="http://www.w3.org/1999/xlink">
<g id="graph0" class="graph" transform="scale(1 1) rotate(0) translate(4 1140)">
<title>structs</title>
<polygon fill="white" stroke="transparent" points="-4,4 -4,-1140 340.5,-1140 340.5,4 -4,4"/>
<!-- abf -->
<g id="node1" class="node">
<title>abf</title>
<polygon fill="lightskyblue" stroke="transparent" points="164,-715 164,-801 211,-801 211,-715 164,-715"/>
<polygon fill="none" stroke="black" points="164.5,-778 164.5,-801 189.5,-801 189.5,-778 164.5,-778"/>
<text text-anchor="start" x="175.5" y="-786.4" font-family="Times New Roman,serif" font-size="12.00">l</text>
<polygon fill="none" stroke="black" points="189.5,-778 189.5,-801 211.5,-801 211.5,-778 189.5,-778"/>
<text text-anchor="start" x="198.5" y="-786.4" font-family="Times New Roman,serif" font-size="12.00">r</text>
<polygon fill="none" stroke="black" points="164.5,-738 164.5,-778 211.5,-778 211.5,-738 164.5,-738"/>
<text text-anchor="start" x="178.5" y="-761.8" font-family="Times New Roman,serif" font-size="14.00">abf</text>
<text text-anchor="start" x="169.5" y="-746.8" font-family="Times New Roman,serif" font-size="14.00">(ABF)</text>
<polygon fill="none" stroke="black" points="164.5,-715 164.5,-738 189.5,-738 189.5,-715 164.5,-715"/>
<text text-anchor="start" x="173.5" y="-723.4" font-family="Times New Roman,serif" font-size="12.00">o</text>
<polygon fill="none" stroke="black" points="189.5,-715 189.5,-738 211.5,-738 211.5,-715 189.5,-715"/>
</g>
<!-- aec -->
<g id="node2" class="node">
<title>aec</title>
<polygon fill="lightskyblue" stroke="transparent" points="211,-574 211,-660 258,-660 258,-574 211,-574"/>
<polygon fill="none" stroke="black" points="211.5,-637 211.5,-660 235.5,-660 235.5,-637 211.5,-637"/>
<text text-anchor="start" x="222" y="-645.4" font-family="Times New Roman,serif" font-size="12.00">i</text>
<polygon fill="none" stroke="black" points="235.5,-637 235.5,-660 258.5,-660 258.5,-637 235.5,-637"/>
<text text-anchor="start" x="244.5" y="-645.4" font-family="Times New Roman,serif" font-size="12.00">s</text>
<polygon fill="none" stroke="black" points="211.5,-597 211.5,-637 258.5,-637 258.5,-597 211.5,-597"/>
<text text-anchor="start" x="225.5" y="-620.8" font-family="Times New Roman,serif" font-size="14.00">aec</text>
<text text-anchor="start" x="216.5" y="-605.8" font-family="Times New Roman,serif" font-size="14.00">(AEC)</text>
<polygon fill="none" stroke="black" points="211.5,-574 211.5,-597 235.5,-597 235.5,-574 211.5,-574"/>
<text text-anchor="start" x="220" y="-582.4" font-family="Times New Roman,serif" font-size="12.00">o</text>
<polygon fill="none" stroke="black" points="235.5,-574 235.5,-597 258.5,-597 258.5,-574 235.5,-574"/>
</g>
<!-- abf&#45;&gt;aec -->
<g id="edge5" class="edge">
<title>abf:o&#45;&gt;aec:i</title>
<path fill="none" stroke="black" d="M176.5,-714C176.5,-684.36 218.15,-691.46 223.03,-666.12"/>
<polygon fill="black" stroke="black" points="224.79,-666.14 223.5,-661 221.31,-665.82 224.79,-666.14"/>
<text text-anchor="start" x="210.5" y="-685" font-family="Times New Roman,serif" font-size="10.00">s16(256)</text>
<text text-anchor="start" x="199" y="-669.9" font-family="Times New Roman,serif" font-size="12.00" fill="blue">256</text>
<text text-anchor="start" x="152" y="-697.9" font-family="Times New Roman,serif" font-size="12.00" fill="blue">256</text>
</g>
<!-- anr -->
<g id="node3" class="node">
<title>anr</title>
<polygon fill="lightskyblue" stroke="transparent" points="198,-479 198,-519 247,-519 247,-479 198,-479"/>
<polygon fill="none" stroke="black" points="198.5,-479 198.5,-519 247.5,-519 247.5,-479 198.5,-479"/>
<text text-anchor="start" x="214" y="-502.8" font-family="Times New Roman,serif" font-size="14.00">anr</text>
<text text-anchor="start" x="203.5" y="-487.8" font-family="Times New Roman,serif" font-size="14.00">(ANR)</text>
</g>
<!-- aec&#45;&gt;anr -->
<g id="edge6" class="edge">
<title>aec:o&#45;&gt;anr:i</title>
<path fill="none" stroke="black" d="M223.5,-573C223.5,-556.75 223.5,-538.46 223.5,-524.25"/>
<polygon fill="black" stroke="black" points="225.25,-524.21 223.5,-519.21 221.75,-524.21 225.25,-524.21"/>
<text text-anchor="start" x="223.5" y="-544" font-family="Times New Roman,serif" font-size="10.00">s16(256)</text>
<text text-anchor="start" x="199" y="-528.11" font-family="Times New Roman,serif" font-size="12.00" fill="blue">256</text>
<text text-anchor="start" x="199" y="-556.9" font-family="Times New Roman,serif" font-size="12.00" fill="blue">256</text>
</g>
<!-- audioWin -->
<g id="node4" class="node">
<title>audioWin</title>
<polygon fill="aquamarine" stroke="transparent" points="176,-384 176,-424 269,-424 269,-384 176,-384"/>
<polygon fill="none" stroke="black" points="176.5,-384 176.5,-424 269.5,-424 269.5,-384 176.5,-384"/>
<text text-anchor="start" x="195.5" y="-407.8" font-family="Times New Roman,serif" font-size="14.00">audioWin</text>
<text text-anchor="start" x="181.5" y="-392.8" font-family="Times New Roman,serif" font-size="14.00">(SlidingBuffer)</text>
</g>
<!-- anr&#45;&gt;audioWin -->
<g id="edge7" class="edge">
<title>anr:i&#45;&gt;audioWin:i</title>
<path fill="none" stroke="black" d="M223.5,-478.73C223.5,-464.39 223.5,-444.72 223.5,-429.3"/>
<polygon fill="black" stroke="black" points="225.25,-429.24 223.5,-424.24 221.75,-429.25 225.25,-429.24"/>
<text text-anchor="start" x="223.5" y="-449" font-family="Times New Roman,serif" font-size="10.00">s16(512)</text>
<text text-anchor="start" x="199" y="-433.14" font-family="Times New Roman,serif" font-size="12.00" fill="blue">320</text>
<text text-anchor="start" x="199" y="-462.63" font-family="Times New Roman,serif" font-size="12.00" fill="blue">256</text>
</g>
<!-- mfcc -->
<g id="node8" class="node">
<title>mfcc</title>
<polygon fill="aquamarine" stroke="transparent" points="193,-289 193,-329 252,-329 252,-289 193,-289"/>
<polygon fill="none" stroke="black" points="193.5,-289 193.5,-329 252.5,-329 252.5,-289 193.5,-289"/>
<text text-anchor="start" x="208.5" y="-312.8" font-family="Times New Roman,serif" font-size="14.00">mfcc</text>
<text text-anchor="start" x="198.5" y="-297.8" font-family="Times New Roman,serif" font-size="14.00">(MFCC)</text>
</g>
<!-- audioWin&#45;&gt;mfcc -->
<g id="edge8" class="edge">
<title>audioWin:i&#45;&gt;mfcc:i</title>
<path fill="none" stroke="black" d="M223.5,-383.73C223.5,-369.39 223.5,-349.72 223.5,-334.3"/>
<polygon fill="black" stroke="black" points="225.25,-334.24 223.5,-329.24 221.75,-334.25 225.25,-334.24"/>
<text text-anchor="start" x="223.5" y="-354" font-family="Times New Roman,serif" font-size="10.00">s16(640)</text>
<text text-anchor="start" x="199" y="-338.14" font-family="Times New Roman,serif" font-size="12.00" fill="blue">640</text>
<text text-anchor="start" x="199" y="-367.63" font-family="Times New Roman,serif" font-size="12.00" fill="blue">640</text>
</g>
<!-- dsnn -->
<g id="node5" class="node">
<title>dsnn</title>
<polygon fill="aquamarine" stroke="transparent" points="194,-99 194,-139 251,-139 251,-99 194,-99"/>
<polygon fill="none" stroke="black" points="194.5,-99 194.5,-139 251.5,-139 251.5,-99 194.5,-99"/>
<text text-anchor="start" x="209" y="-122.8" font-family="Times New Roman,serif" font-size="14.00">dsnn</text>
<text text-anchor="start" x="199.5" y="-107.8" font-family="Times New Roman,serif" font-size="14.00">(DSNN)</text>
</g>
<!-- result -->
<g id="node10" class="node">
<title>result</title>
<polygon fill="aquamarine" stroke="transparent" points="195,-4 195,-44 250,-44 250,-4 195,-4"/>
<polygon fill="none" stroke="black" points="195.5,-4 195.5,-44 250.5,-44 250.5,-4 195.5,-4"/>
<text text-anchor="start" x="207.5" y="-27.8" font-family="Times New Roman,serif" font-size="14.00">result</text>
<text text-anchor="start" x="200.5" y="-12.8" font-family="Times New Roman,serif" font-size="14.00">(Result)</text>
</g>
<!-- dsnn&#45;&gt;result -->
<g id="edge11" class="edge">
<title>dsnn:i&#45;&gt;result:i</title>
<path fill="none" stroke="black" d="M223.5,-98.73C223.5,-84.39 223.5,-64.72 223.5,-49.3"/>
<polygon fill="black" stroke="black" points="225.25,-49.24 223.5,-44.24 221.75,-49.25 225.25,-49.24"/>
<text text-anchor="start" x="223.5" y="-69" font-family="Times New Roman,serif" font-size="10.00">s8(12)</text>
<text text-anchor="start" x="205" y="-53.14" font-family="Times New Roman,serif" font-size="12.00" fill="blue">12</text>
<text text-anchor="start" x="205" y="-82.63" font-family="Times New Roman,serif" font-size="12.00" fill="blue">12</text>
</g>
<!-- dup0 -->
<g id="node6" class="node">
<title>dup0</title>
<ellipse fill="black" stroke="black" cx="245.5" cy="-1017" rx="1.8" ry="1.8"/>
</g>
<!-- dup0&#45;&gt;aec -->
<g id="edge15" class="edge">
<title>dup0&#45;&gt;aec:s</title>
<path fill="none" stroke="black" d="M246.63,-1015.15C251.71,-1011.26 272.47,-994.48 279.5,-975 281.16,-970.4 279.59,-968.89 279.5,-964 277.03,-825.52 396.68,-653.43 264.72,-649.08"/>
<polygon fill="black" stroke="black" points="264.53,-647.33 259.5,-649 264.47,-650.83 264.53,-647.33"/>
<text text-anchor="start" x="302.5" y="-826" font-family="Times New Roman,serif" font-size="10.00">s16(256)</text>
<text text-anchor="start" x="266" y="-657.9" font-family="Times New Roman,serif" font-size="12.00" fill="blue">256</text>
</g>
<!-- th_add_q151 -->
<g id="node13" class="node">
<title>th_add_q151</title>
<polygon fill="#d4d4d4" stroke="transparent" points="68.5,-856 68.5,-942 146.5,-942 146.5,-856 68.5,-856"/>
<polygon fill="none" stroke="black" points="68.5,-919 68.5,-942 108.5,-942 108.5,-919 68.5,-919"/>
<text text-anchor="start" x="87" y="-927.4" font-family="Times New Roman,serif" font-size="12.00">l</text>
<polygon fill="none" stroke="black" points="108.5,-919 108.5,-942 146.5,-942 146.5,-919 108.5,-919"/>
<text text-anchor="start" x="125" y="-927.4" font-family="Times New Roman,serif" font-size="12.00">s</text>
<polygon fill="none" stroke="black" points="68.5,-879 68.5,-919 146.5,-919 146.5,-879 68.5,-879"/>
<text text-anchor="start" x="73.5" y="-902.8" font-family="Times New Roman,serif" font-size="14.00">th_add_q15</text>
<text text-anchor="start" x="78" y="-887.8" font-family="Times New Roman,serif" font-size="14.00">(Function)</text>
<polygon fill="none" stroke="black" points="68.5,-856 68.5,-879 108.5,-879 108.5,-856 68.5,-856"/>
<text text-anchor="start" x="85" y="-864.4" font-family="Times New Roman,serif" font-size="12.00">o</text>
<polygon fill="none" stroke="black" points="108.5,-856 108.5,-879 146.5,-879 146.5,-856 108.5,-856"/>
</g>
<!-- dup0&#45;&gt;th_add_q151 -->
<g id="edge13" class="edge">
<title>dup0&#45;&gt;th_add_q151:s</title>
<path fill="none" stroke="black" d="M244.68,-1015.32C238.33,-1010.09 196.42,-975.45 163.5,-946 157.82,-940.92 157.2,-934.62 152.55,-932.11"/>
<polygon fill="black" stroke="black" points="152.76,-930.36 147.5,-931 152.01,-933.78 152.76,-930.36"/>
<text text-anchor="start" x="195.5" y="-967" font-family="Times New Roman,serif" font-size="10.00">s16(256)</text>
<text text-anchor="start" x="154" y="-939.9" font-family="Times New Roman,serif" font-size="12.00" fill="blue">256</text>
</g>
<!-- th_add_q152 -->
<g id="node14" class="node">
<title>th_add_q152</title>
<polygon fill="#d4d4d4" stroke="transparent" points="180.5,-856 180.5,-942 258.5,-942 258.5,-856 180.5,-856"/>
<polygon fill="none" stroke="black" points="180.5,-919 180.5,-942 220.5,-942 220.5,-919 180.5,-919"/>
<text text-anchor="start" x="198.5" y="-927.4" font-family="Times New Roman,serif" font-size="12.00">r</text>
<polygon fill="none" stroke="black" points="220.5,-919 220.5,-942 258.5,-942 258.5,-919 220.5,-919"/>
<text text-anchor="start" x="237" y="-927.4" font-family="Times New Roman,serif" font-size="12.00">s</text>
<polygon fill="none" stroke="black" points="180.5,-879 180.5,-919 258.5,-919 258.5,-879 180.5,-879"/>
<text text-anchor="start" x="185.5" y="-902.8" font-family="Times New Roman,serif" font-size="14.00">th_add_q15</text>
<text text-anchor="start" x="190" y="-887.8" font-family="Times New Roman,serif" font-size="14.00">(Function)</text>
<polygon fill="none" stroke="black" points="180.5,-856 180.5,-879 220.5,-879 220.5,-856 180.5,-856"/>
<text text-anchor="start" x="197" y="-864.4" font-family="Times New Roman,serif" font-size="12.00">o</text>
<polygon fill="none" stroke="black" points="220.5,-856 220.5,-879 258.5,-879 258.5,-856 220.5,-856"/>
</g>
<!-- dup0&#45;&gt;th_add_q152 -->
<g id="edge14" class="edge">
<title>dup0&#45;&gt;th_add_q152:s</title>
<path fill="none" stroke="black" d="M245.35,-1014.97C244.48,-1008.87 240.06,-976.62 239.55,-948.25"/>
<polygon fill="black" stroke="black" points="241.3,-947.98 239.5,-943 237.8,-948.02 241.3,-947.98"/>
<text text-anchor="start" x="241.5" y="-967" font-family="Times New Roman,serif" font-size="10.00">s16(256)</text>
<text text-anchor="start" x="215" y="-951.9" font-family="Times New Roman,serif" font-size="12.00" fill="blue">256</text>
</g>
<!-- left -->
<g id="node7" class="node">
<title>left</title>
<polygon fill="#d4d4d4" stroke="transparent" points="8,-997 8,-1037 67,-1037 67,-997 8,-997"/>
<polygon fill="none" stroke="black" points="8.5,-997 8.5,-1037 67.5,-1037 67.5,-997 8.5,-997"/>
<text text-anchor="start" x="29" y="-1020.8" font-family="Times New Roman,serif" font-size="14.00">left</text>
<text text-anchor="start" x="13.5" y="-1005.8" font-family="Times New Roman,serif" font-size="14.00">(Source)</text>
</g>
<!-- left&#45;&gt;th_add_q151 -->
<g id="edge1" class="edge">
<title>left:i&#45;&gt;th_add_q151:l</title>
<path fill="none" stroke="black" d="M37.2,-996.71C36.64,-973.3 39.48,-936.33 62.32,-931.52"/>
<polygon fill="black" stroke="black" points="62.7,-933.24 67.5,-931 62.35,-929.76 62.7,-933.24"/>
<text text-anchor="start" x="39.5" y="-967" font-family="Times New Roman,serif" font-size="10.00"> s16(256)</text>
<text text-anchor="start" x="43" y="-939.9" font-family="Times New Roman,serif" font-size="12.00" fill="blue">256</text>
<text text-anchor="start" x="12.7" y="-980.61" font-family="Times New Roman,serif" font-size="12.00" fill="blue">256</text>
</g>
<!-- mfccWin -->
<g id="node9" class="node">
<title>mfccWin</title>
<polygon fill="aquamarine" stroke="transparent" points="176,-194 176,-234 269,-234 269,-194 176,-194"/>
<polygon fill="none" stroke="black" points="176.5,-194 176.5,-234 269.5,-234 269.5,-194 176.5,-194"/>
<text text-anchor="start" x="197" y="-217.8" font-family="Times New Roman,serif" font-size="14.00">mfccWin</text>
<text text-anchor="start" x="181.5" y="-202.8" font-family="Times New Roman,serif" font-size="14.00">(SlidingBuffer)</text>
</g>
<!-- mfcc&#45;&gt;mfccWin -->
<g id="edge9" class="edge">
<title>mfcc:i&#45;&gt;mfccWin:i</title>
<path fill="none" stroke="black" d="M223.5,-288.73C223.5,-274.39 223.5,-254.72 223.5,-239.3"/>
<polygon fill="black" stroke="black" points="225.25,-239.24 223.5,-234.24 221.75,-239.25 225.25,-239.24"/>
<text text-anchor="start" x="223.5" y="-259" font-family="Times New Roman,serif" font-size="10.00">s8(10)</text>
<text text-anchor="start" x="205" y="-243.14" font-family="Times New Roman,serif" font-size="12.00" fill="blue">10</text>
<text text-anchor="start" x="205" y="-272.63" font-family="Times New Roman,serif" font-size="12.00" fill="blue">10</text>
</g>
<!-- mfccWin&#45;&gt;dsnn -->
<g id="edge10" class="edge">
<title>mfccWin:i&#45;&gt;dsnn:i</title>
<path fill="none" stroke="black" d="M223.5,-193.73C223.5,-179.39 223.5,-159.72 223.5,-144.3"/>
<polygon fill="black" stroke="black" points="225.25,-144.24 223.5,-139.24 221.75,-144.25 225.25,-144.24"/>
<text text-anchor="start" x="223.5" y="-164" font-family="Times New Roman,serif" font-size="10.00">s8(490)</text>
<text text-anchor="start" x="199" y="-148.14" font-family="Times New Roman,serif" font-size="12.00" fill="blue">490</text>
<text text-anchor="start" x="199" y="-177.63" font-family="Times New Roman,serif" font-size="12.00" fill="blue">490</text>
</g>
<!-- right -->
<g id="node11" class="node">
<title>right</title>
<polygon fill="#d4d4d4" stroke="transparent" points="101,-997 101,-1037 160,-1037 160,-997 101,-997"/>
<polygon fill="none" stroke="black" points="101.5,-997 101.5,-1037 160.5,-1037 160.5,-997 101.5,-997"/>
<text text-anchor="start" x="118.5" y="-1020.8" font-family="Times New Roman,serif" font-size="14.00">right</text>
<text text-anchor="start" x="106.5" y="-1005.8" font-family="Times New Roman,serif" font-size="14.00">(Source)</text>
</g>
<!-- right&#45;&gt;th_add_q152 -->
<g id="edge2" class="edge">
<title>right:i&#45;&gt;th_add_q152:r</title>
<path fill="none" stroke="black" d="M127.55,-996.98C126.4,-986.55 126.73,-973.8 132.5,-964 140.58,-950.27 150.72,-955.51 163.5,-946 169.61,-941.45 169.99,-934.86 174.51,-932.19"/>
<polygon fill="black" stroke="black" points="175.04,-933.86 179.5,-931 174.23,-930.45 175.04,-933.86"/>
<text text-anchor="start" x="132.5" y="-967" font-family="Times New Roman,serif" font-size="10.00">s16(256)</text>
<text text-anchor="start" x="155" y="-914.9" font-family="Times New Roman,serif" font-size="12.00" fill="blue">256</text>
<text text-anchor="start" x="103.05" y="-980.88" font-family="Times New Roman,serif" font-size="12.00" fill="blue">256</text>
</g>
<!-- speaker -->
<g id="node12" class="node">
<title>speaker</title>
<polygon fill="#d4d4d4" stroke="transparent" points="215,-1092 215,-1132 274,-1132 274,-1092 215,-1092"/>
<polygon fill="none" stroke="black" points="215.5,-1092 215.5,-1132 274.5,-1132 274.5,-1092 215.5,-1092"/>
<text text-anchor="start" x="223.5" y="-1115.8" font-family="Times New Roman,serif" font-size="14.00">speaker</text>
<text text-anchor="start" x="220.5" y="-1100.8" font-family="Times New Roman,serif" font-size="14.00">(Source)</text>
</g>
<!-- speaker&#45;&gt;dup0 -->
<g id="edge12" class="edge">
<title>speaker:i&#45;&gt;dup0</title>
<path fill="none" stroke="black" d="M245.5,-1091.73C245.5,-1070.54 245.5,-1037.71 245.5,-1024.16"/>
<polygon fill="black" stroke="black" points="247.25,-1023.82 245.5,-1018.82 243.75,-1023.82 247.25,-1023.82"/>
<text text-anchor="start" x="245.5" y="-1062" font-family="Times New Roman,serif" font-size="10.00">s16(256)</text>
<text text-anchor="start" x="221" y="-1075.63" font-family="Times New Roman,serif" font-size="12.00" fill="blue">256</text>
</g>
<!-- th_add_q151&#45;&gt;abf -->
<g id="edge3" class="edge">
<title>th_add_q151:o&#45;&gt;abf:l</title>
<path fill="none" stroke="black" d="M88.5,-855C88.5,-812.61 117.02,-791.67 158.39,-790.1"/>
<polygon fill="black" stroke="black" points="158.53,-791.84 163.5,-790 158.47,-788.34 158.53,-791.84"/>
<text text-anchor="start" x="95.5" y="-826" font-family="Times New Roman,serif" font-size="10.00">s16(256)</text>
<text text-anchor="start" x="139" y="-798.9" font-family="Times New Roman,serif" font-size="12.00" fill="blue">256</text>
<text text-anchor="start" x="64" y="-838.9" font-family="Times New Roman,serif" font-size="12.00" fill="blue">256</text>
</g>
<!-- th_add_q152&#45;&gt;abf -->
<g id="edge4" class="edge">
<title>th_add_q152:o&#45;&gt;abf:r</title>
<path fill="none" stroke="black" d="M200.5,-855C200.5,-833.28 200.5,-826.58 200.5,-807.21"/>
<polygon fill="black" stroke="black" points="202.25,-807 200.5,-802 198.75,-807 202.25,-807"/>
<text text-anchor="start" x="200.5" y="-826" font-family="Times New Roman,serif" font-size="10.00">s16(256)</text>
<text text-anchor="start" x="176" y="-810.9" font-family="Times New Roman,serif" font-size="12.00" fill="blue">256</text>
<text text-anchor="start" x="176" y="-838.9" font-family="Times New Roman,serif" font-size="12.00" fill="blue">256</text>
</g>
</g>
</svg>
