<?xml version="1.0" encoding="UTF-8" standalone="no"?>
<!DOCTYPE svg PUBLIC "-//W3C//DTD SVG 1.1//EN"
 "http://www.w3.org/Graphics/SVG/1.1/DTD/svg11.dtd">
<!-- Generated by graphviz version 9.0.0 (20230911.1827)
 -->
<!-- Title: structs Pages: 1 -->
<svg width="339pt" height="1168pt"
 viewBox="0.00 0.00 339.38 1167.50" xmlns="http://www.w3.org/2000/svg" xmlns:xlink="http://www.w3.org/1999/xlink">
<g id="graph0" class="graph" transform="scale(1 1) rotate(0) translate(4 1163.5)">
<title>structs</title>
<polygon fill="white" stroke="none" points="-4,4 -4,-1163.5 335.38,-1163.5 335.38,4 -4,4"/>
<!-- abf -->
<g id="node1" class="node">
<title>abf</title>
<polygon fill="lightskyblue" stroke="none" points="161.38,-728.75 161.38,-817.75 207.38,-817.75 207.38,-728.75 161.38,-728.75"/>
<polygon fill="none" stroke="black" points="161.38,-793.75 161.38,-817.75 185.38,-817.75 185.38,-793.75 161.38,-793.75"/>
<text text-anchor="start" x="172.25" y="-801.35" font-family="Times New Roman,serif" font-size="12.00">l</text>
<polygon fill="none" stroke="black" points="185.38,-793.75 185.38,-817.75 207.38,-817.75 207.38,-793.75 185.38,-793.75"/>
<text text-anchor="start" x="194.5" y="-801.35" font-family="Times New Roman,serif" font-size="12.00">r</text>
<polygon fill="none" stroke="black" points="161.38,-752.75 161.38,-793.75 207.38,-793.75 207.38,-752.75 161.38,-752.75"/>
<text text-anchor="start" x="175.38" y="-775.45" font-family="Times New Roman,serif" font-size="14.00">abf</text>
<text text-anchor="start" x="166.38" y="-759.7" font-family="Times New Roman,serif" font-size="14.00">(ABF)</text>
<polygon fill="none" stroke="black" points="161.38,-728.75 161.38,-752.75 185.38,-752.75 185.38,-728.75 161.38,-728.75"/>
<text text-anchor="start" x="170.38" y="-736.35" font-family="Times New Roman,serif" font-size="12.00">o</text>
<polygon fill="none" stroke="black" points="185.38,-728.75 185.38,-752.75 207.38,-752.75 207.38,-728.75 185.38,-728.75"/>
</g>
<!-- aec -->
<g id="node2" class="node">
<title>aec</title>
<polygon fill="lightskyblue" stroke="none" points="208.38,-584.5 208.38,-673.5 254.38,-673.5 254.38,-584.5 208.38,-584.5"/>
<polygon fill="none" stroke="black" points="208.38,-649.5 208.38,-673.5 232.38,-673.5 232.38,-649.5 208.38,-649.5"/>
<text text-anchor="start" x="219.25" y="-657.1" font-family="Times New Roman,serif" font-size="12.00">i</text>
<polygon fill="none" stroke="black" points="232.38,-649.5 232.38,-673.5 254.38,-673.5 254.38,-649.5 232.38,-649.5"/>
<text text-anchor="start" x="241.12" y="-657.1" font-family="Times New Roman,serif" font-size="12.00">s</text>
<polygon fill="none" stroke="black" points="208.38,-608.5 208.38,-649.5 254.38,-649.5 254.38,-608.5 208.38,-608.5"/>
<text text-anchor="start" x="222" y="-631.2" font-family="Times New Roman,serif" font-size="14.00">aec</text>
<text text-anchor="start" x="213" y="-615.45" font-family="Times New Roman,serif" font-size="14.00">(AEC)</text>
<polygon fill="none" stroke="black" points="208.38,-584.5 208.38,-608.5 232.38,-608.5 232.38,-584.5 208.38,-584.5"/>
<text text-anchor="start" x="217.38" y="-592.1" font-family="Times New Roman,serif" font-size="12.00">o</text>
<polygon fill="none" stroke="black" points="232.38,-584.5 232.38,-608.5 254.38,-608.5 254.38,-584.5 232.38,-584.5"/>
</g>
<!-- abf&#45;&gt;aec -->
<g id="edge5" class="edge">
<title>abf:o&#45;&gt;aec:i</title>
<path fill="none" stroke="black" d="M173.38,-727.25C173.38,-698.33 213.66,-704.95 219.64,-681.3"/>
<polygon fill="black" stroke="black" points="221.36,-681.67 220.2,-676.5 217.88,-681.27 221.36,-681.67"/>
<text text-anchor="start" x="207.38" y="-697.25" font-family="Times New Roman,serif" font-size="10.00">s16(256)</text>
<text text-anchor="start" x="196.38" y="-683.85" font-family="Times New Roman,serif" font-size="12.00" fill="blue">256</text>
<text text-anchor="start" x="149.38" y="-709.85" font-family="Times New Roman,serif" font-size="12.00" fill="blue">256</text>
</g>
<!-- anr -->
<g id="node3" class="node">
<title>anr</title>
<polygon fill="lightskyblue" stroke="none" points="196.25,-487.75 196.25,-529.25 244.5,-529.25 244.5,-487.75 196.25,-487.75"/>
<polygon fill="none" stroke="black" points="196.25,-487.75 196.25,-529.25 244.5,-529.25 244.5,-487.75 196.25,-487.75"/>
<text text-anchor="start" x="211.75" y="-510.95" font-family="Times New Roman,serif" font-size="14.00">anr</text>
<text text-anchor="start" x="201.25" y="-495.2" font-family="Times New Roman,serif" font-size="14.00">(ANR)</text>
</g>
<!-- aec&#45;&gt;anr -->
<g id="edge6" class="edge">
<title>aec:o&#45;&gt;anr:i</title>
<path fill="none" stroke="black" d="M220.38,-583C220.38,-567.18 220.38,-549.44 220.38,-535.35"/>
<polygon fill="black" stroke="black" points="222.13,-535.67 220.38,-530.67 218.63,-535.67 222.13,-535.67"/>
<text text-anchor="start" x="220.38" y="-553" font-family="Times New Roman,serif" font-size="10.00">s16(256)</text>
<text text-anchor="start" x="196.38" y="-538" font-family="Times New Roman,serif" font-size="12.00" fill="blue">256</text>
<text text-anchor="start" x="196.38" y="-565.6" font-family="Times New Roman,serif" font-size="12.00" fill="blue">256</text>
</g>
<!-- audioWin -->
<g id="node4" class="node">
<title>audioWin</title>
<polygon fill="aquamarine" stroke="none" points="174.12,-391 174.12,-432.5 266.62,-432.5 266.62,-391 174.12,-391"/>
<polygon fill="none" stroke="black" points="174.12,-391 174.12,-432.5 266.62,-432.5 266.62,-391 174.12,-391"/>
<text text-anchor="start" x="193.38" y="-414.2" font-family="Times New Roman,serif" font-size="14.00">audioWin</text>
<text text-anchor="start" x="179.12" y="-398.45" font-family="Times New Roman,serif" font-size="14.00">(SlidingBuffer)</text>
</g>
<!-- anr&#45;&gt;audioWin -->
<g id="edge7" class="edge">
<title>anr:i&#45;&gt;audioWin:i</title>
<path fill="none" stroke="black" d="M220.38,-487.87C220.38,-473.64 220.38,-454.26 220.38,-438.74"/>
<polygon fill="black" stroke="black" points="222.13,-438.87 220.38,-433.87 218.63,-438.87 222.13,-438.87"/>
<text text-anchor="start" x="220.38" y="-456.25" font-family="Times New Roman,serif" font-size="10.00">s16(512)</text>
<text text-anchor="start" x="196.38" y="-441.21" font-family="Times New Roman,serif" font-size="12.00" fill="blue">320</text>
<text text-anchor="start" x="196.38" y="-470.47" font-family="Times New Roman,serif" font-size="12.00" fill="blue">256</text>
</g>
<!-- mfcc -->
<g id="node8" class="node">
<title>mfcc</title>
<polygon fill="aquamarine" stroke="none" points="191,-294.25 191,-335.75 249.75,-335.75 249.75,-294.25 191,-294.25"/>
<polygon fill="none" stroke="black" points="191,-294.25 191,-335.75 249.75,-335.75 249.75,-294.25 191,-294.25"/>
<text text-anchor="start" x="206.12" y="-317.45" font-family="Times New Roman,serif" font-size="14.00">mfcc</text>
<text text-anchor="start" x="196" y="-301.7" font-family="Times New Roman,serif" font-size="14.00">(MFCC)</text>
</g>
<!-- audioWin&#45;&gt;mfcc -->
<g id="edge8" class="edge">
<title>audioWin:i&#45;&gt;mfcc:i</title>
<path fill="none" stroke="black" d="M220.38,-391.12C220.38,-376.89 220.38,-357.51 220.38,-341.99"/>
<polygon fill="black" stroke="black" points="222.13,-342.12 220.38,-337.12 218.63,-342.12 222.13,-342.12"/>
<text text-anchor="start" x="220.38" y="-359.5" font-family="Times New Roman,serif" font-size="10.00">s16(640)</text>
<text text-anchor="start" x="196.38" y="-344.46" font-family="Times New Roman,serif" font-size="12.00" fill="blue">640</text>
<text text-anchor="start" x="196.38" y="-373.72" font-family="Times New Roman,serif" font-size="12.00" fill="blue">640</text>
</g>
<!-- dsnn -->
<g id="node5" class="node">
<title>dsnn</title>
<polygon fill="aquamarine" stroke="none" points="192.12,-100.75 192.12,-142.25 248.62,-142.25 248.62,-100.75 192.12,-100.75"/>
<polygon fill="none" stroke="black" points="192.12,-100.75 192.12,-142.25 248.62,-142.25 248.62,-100.75 192.12,-100.75"/>
<text text-anchor="start" x="206.88" y="-123.95" font-family="Times New Roman,serif" font-size="14.00">dsnn</text>
<text text-anchor="start" x="197.12" y="-108.2" font-family="Times New Roman,serif" font-size="14.00">(DSNN)</text>
</g>
<!-- result -->
<g id="node10" class="node">
<title>result</title>
<polygon fill="aquamarine" stroke="none" points="193.25,-4 193.25,-45.5 247.5,-45.5 247.5,-4 193.25,-4"/>
<polygon fill="none" stroke="black" points="193.25,-4 193.25,-45.5 247.5,-45.5 247.5,-4 193.25,-4"/>
<text text-anchor="start" x="205.38" y="-27.2" font-family="Times New Roman,serif" font-size="14.00">result</text>
<text text-anchor="start" x="198.25" y="-11.45" font-family="Times New Roman,serif" font-size="14.00">(Result)</text>
</g>
<!-- dsnn&#45;&gt;result -->
<g id="edge11" class="edge">
<title>dsnn:i&#45;&gt;result:i</title>
<path fill="none" stroke="black" d="M220.38,-100.87C220.38,-86.64 220.38,-67.26 220.38,-51.74"/>
<polygon fill="black" stroke="black" points="222.13,-51.87 220.38,-46.87 218.63,-51.87 222.13,-51.87"/>
<text text-anchor="start" x="220.38" y="-69.25" font-family="Times New Roman,serif" font-size="10.00">s8(12)</text>
<text text-anchor="start" x="202.38" y="-54.21" font-family="Times New Roman,serif" font-size="12.00" fill="blue">12</text>
<text text-anchor="start" x="202.38" y="-83.47" font-family="Times New Roman,serif" font-size="12.00" fill="blue">12</text>
</g>
<!-- dup0 -->
<g id="node6" class="node">
<title>dup0</title>
<ellipse fill="black" stroke="black" cx="242.38" cy="-1038" rx="1.8" ry="1.8"/>
</g>
<!-- dup0&#45;&gt;aec -->
<g id="edge15" class="edge">
<title>dup0&#45;&gt;aec:s</title>
<path fill="none" stroke="black" d="M243.41,-1036.11C248.05,-1032.01 267.03,-1014.45 273.38,-995.25 274.94,-990.5 273.42,-989 273.38,-984 272.15,-842.77 395.03,-667.23 261.5,-662.11"/>
<polygon fill="black" stroke="black" points="261.92,-660.37 256.89,-662.03 261.85,-663.87 261.92,-660.37"/>
<text text-anchor="start" x="298.38" y="-841.5" font-family="Times New Roman,serif" font-size="10.00">s16(256)</text>
<text text-anchor="start" x="261.38" y="-670.85" font-family="Times New Roman,serif" font-size="12.00" fill="blue">256</text>
</g>
<!-- th_add_q151 -->
<g id="node13" class="node">
<title>th_add_q151</title>
<polygon fill="#d4d4d4" stroke="none" points="65.88,-873 65.88,-962 142.88,-962 142.88,-873 65.88,-873"/>
<polygon fill="none" stroke="black" points="65.88,-938 65.88,-962 104.88,-962 104.88,-938 65.88,-938"/>
<text text-anchor="start" x="84.25" y="-945.6" font-family="Times New Roman,serif" font-size="12.00">l</text>
<polygon fill="none" stroke="black" points="104.88,-938 104.88,-962 142.88,-962 142.88,-938 104.88,-938"/>
<text text-anchor="start" x="121.62" y="-945.6" font-family="Times New Roman,serif" font-size="12.00">s</text>
<polygon fill="none" stroke="black" points="65.88,-897 65.88,-938 142.88,-938 142.88,-897 65.88,-897"/>
<text text-anchor="start" x="70.62" y="-919.7" font-family="Times New Roman,serif" font-size="14.00">th_add_q15</text>
<text text-anchor="start" x="75.12" y="-903.95" font-family="Times New Roman,serif" font-size="14.00">(Function)</text>
<polygon fill="none" stroke="black" points="65.88,-873 65.88,-897 104.88,-897 104.88,-873 65.88,-873"/>
<text text-anchor="start" x="82.38" y="-880.6" font-family="Times New Roman,serif" font-size="12.00">o</text>
<polygon fill="none" stroke="black" points="104.88,-873 104.88,-897 142.88,-897 142.88,-873 104.88,-873"/>
</g>
<!-- dup0&#45;&gt;th_add_q151 -->
<g id="edge13" class="edge">
<title>dup0&#45;&gt;th_add_q151:s</title>
<path fill="none" stroke="black" d="M241.55,-1036.32C235.18,-1031.03 193.15,-996.02 160.38,-966 155.13,-961.19 154.27,-955.29 150.53,-952.35"/>
<polygon fill="black" stroke="black" points="151.12,-950.7 145.82,-950.94 150.11,-954.05 151.12,-950.7"/>
<text text-anchor="start" x="191.38" y="-985.75" font-family="Times New Roman,serif" font-size="10.00">s16(256)</text>
<text text-anchor="start" x="150.38" y="-959.35" font-family="Times New Roman,serif" font-size="12.00" fill="blue">256</text>
</g>
<!-- th_add_q152 -->
<g id="node14" class="node">
<title>th_add_q152</title>
<polygon fill="#d4d4d4" stroke="none" points="176.88,-873 176.88,-962 253.88,-962 253.88,-873 176.88,-873"/>
<polygon fill="none" stroke="black" points="176.88,-938 176.88,-962 215.88,-962 215.88,-938 176.88,-938"/>
<text text-anchor="start" x="194.5" y="-945.6" font-family="Times New Roman,serif" font-size="12.00">r</text>
<polygon fill="none" stroke="black" points="215.88,-938 215.88,-962 253.88,-962 253.88,-938 215.88,-938"/>
<text text-anchor="start" x="232.62" y="-945.6" font-family="Times New Roman,serif" font-size="12.00">s</text>
<polygon fill="none" stroke="black" points="176.88,-897 176.88,-938 253.88,-938 253.88,-897 176.88,-897"/>
<text text-anchor="start" x="181.62" y="-919.7" font-family="Times New Roman,serif" font-size="14.00">th_add_q15</text>
<text text-anchor="start" x="186.12" y="-903.95" font-family="Times New Roman,serif" font-size="14.00">(Function)</text>
<polygon fill="none" stroke="black" points="176.88,-873 176.88,-897 215.88,-897 215.88,-873 176.88,-873"/>
<text text-anchor="start" x="193.38" y="-880.6" font-family="Times New Roman,serif" font-size="12.00">o</text>
<polygon fill="none" stroke="black" points="215.88,-873 215.88,-897 253.88,-897 253.88,-873 215.88,-873"/>
</g>
<!-- dup0&#45;&gt;th_add_q152 -->
<g id="edge14" class="edge">
<title>dup0&#45;&gt;th_add_q152:s</title>
<path fill="none" stroke="black" d="M242.2,-1035.97C241.2,-1029.9 236.16,-998.18 235.46,-969.86"/>
<polygon fill="black" stroke="black" points="237.21,-969.99 235.39,-965.01 233.71,-970.04 237.21,-969.99"/>
<text text-anchor="start" x="236.38" y="-985.75" font-family="Times New Roman,serif" font-size="10.00">s16(256)</text>
<text text-anchor="start" x="211.38" y="-972.35" font-family="Times New Roman,serif" font-size="12.00" fill="blue">256</text>
</g>
<!-- left -->
<g id="node7" class="node">
<title>left</title>
<polygon fill="#d4d4d4" stroke="none" points="8,-1017.25 8,-1058.75 66.75,-1058.75 66.75,-1017.25 8,-1017.25"/>
<polygon fill="none" stroke="black" points="8,-1017.25 8,-1058.75 66.75,-1058.75 66.75,-1017.25 8,-1017.25"/>
<text text-anchor="start" x="28.75" y="-1040.45" font-family="Times New Roman,serif" font-size="14.00">left</text>
<text text-anchor="start" x="13" y="-1024.7" font-family="Times New Roman,serif" font-size="14.00">(Source)</text>
</g>
<!-- left&#45;&gt;th_add_q151 -->
<g id="edge1" class="edge">
<title>left:i&#45;&gt;th_add_q151:l</title>
<path fill="none" stroke="black" d="M35.55,-1017.37C34.39,-993.94 36.18,-957.18 58.03,-951.3"/>
<polygon fill="black" stroke="black" points="58.13,-953.05 62.87,-950.69 57.69,-949.58 58.13,-953.05"/>
<text text-anchor="start" x="37.38" y="-985.75" font-family="Times New Roman,serif" font-size="10.00">s16(256)</text>
<text text-anchor="start" x="40.38" y="-959.35" font-family="Times New Roman,serif" font-size="12.00" fill="blue">256</text>
<text text-anchor="start" x="11.55" y="-999.97" font-family="Times New Roman,serif" font-size="12.00" fill="blue">256</text>
</g>
<!-- mfccWin -->
<g id="node9" class="node">
<title>mfccWin</title>
<polygon fill="aquamarine" stroke="none" points="174.12,-197.5 174.12,-239 266.62,-239 266.62,-197.5 174.12,-197.5"/>
<polygon fill="none" stroke="black" points="174.12,-197.5 174.12,-239 266.62,-239 266.62,-197.5 174.12,-197.5"/>
<text text-anchor="start" x="194.5" y="-220.7" font-family="Times New Roman,serif" font-size="14.00">mfccWin</text>
<text text-anchor="start" x="179.12" y="-204.95" font-family="Times New Roman,serif" font-size="14.00">(SlidingBuffer)</text>
</g>
<!-- mfcc&#45;&gt;mfccWin -->
<g id="edge9" class="edge">
<title>mfcc:i&#45;&gt;mfccWin:i</title>
<path fill="none" stroke="black" d="M220.38,-294.37C220.38,-280.14 220.38,-260.76 220.38,-245.24"/>
<polygon fill="black" stroke="black" points="222.13,-245.37 220.38,-240.37 218.63,-245.37 222.13,-245.37"/>
<text text-anchor="start" x="220.38" y="-262.75" font-family="Times New Roman,serif" font-size="10.00">s8(10)</text>
<text text-anchor="start" x="202.38" y="-247.71" font-family="Times New Roman,serif" font-size="12.00" fill="blue">10</text>
<text text-anchor="start" x="202.38" y="-276.97" font-family="Times New Roman,serif" font-size="12.00" fill="blue">10</text>
</g>
<!-- mfccWin&#45;&gt;dsnn -->
<g id="edge10" class="edge">
<title>mfccWin:i&#45;&gt;dsnn:i</title>
<path fill="none" stroke="black" d="M220.38,-197.62C220.38,-183.39 220.38,-164.01 220.38,-148.49"/>
<polygon fill="black" stroke="black" points="222.13,-148.62 220.38,-143.62 218.63,-148.62 222.13,-148.62"/>
<text text-anchor="start" x="220.38" y="-166" font-family="Times New Roman,serif" font-size="10.00">dsnn_input</text>
<text text-anchor="start" x="196.38" y="-150.96" font-family="Times New Roman,serif" font-size="12.00" fill="blue">490</text>
<text text-anchor="start" x="196.38" y="-180.22" font-family="Times New Roman,serif" font-size="12.00" fill="blue">490</text>
</g>
<!-- right -->
<g id="node11" class="node">
<title>right</title>
<polygon fill="#d4d4d4" stroke="none" points="101,-1017.25 101,-1058.75 159.75,-1058.75 159.75,-1017.25 101,-1017.25"/>
<polygon fill="none" stroke="black" points="101,-1017.25 101,-1058.75 159.75,-1058.75 159.75,-1017.25 101,-1017.25"/>
<text text-anchor="start" x="118" y="-1040.45" font-family="Times New Roman,serif" font-size="14.00">right</text>
<text text-anchor="start" x="106" y="-1024.7" font-family="Times New Roman,serif" font-size="14.00">(Source)</text>
</g>
<!-- right&#45;&gt;th_add_q152 -->
<g id="edge2" class="edge">
<title>right:i&#45;&gt;th_add_q152:r</title>
<path fill="none" stroke="black" d="M126.43,-1017.42C125.32,-1006.87 125.69,-994 131.38,-984 138.87,-970.81 148.57,-975.52 160.38,-966 165.74,-961.67 166.19,-955.56 169.58,-952.46"/>
<polygon fill="black" stroke="black" points="169.77,-954.25 173.94,-950.99 168.64,-950.93 169.77,-954.25"/>
<text text-anchor="start" x="131.38" y="-985.75" font-family="Times New Roman,serif" font-size="10.00">s16(256)</text>
<text text-anchor="start" x="151.38" y="-933.1" font-family="Times New Roman,serif" font-size="12.00" fill="blue">256</text>
<text text-anchor="start" x="102.43" y="-1000.02" font-family="Times New Roman,serif" font-size="12.00" fill="blue">256</text>
</g>
<!-- speaker -->
<g id="node12" class="node">
<title>speaker</title>
<polygon fill="#d4d4d4" stroke="none" points="213,-1114 213,-1155.5 271.75,-1155.5 271.75,-1114 213,-1114"/>
<polygon fill="none" stroke="black" points="213,-1114 213,-1155.5 271.75,-1155.5 271.75,-1114 213,-1114"/>
<text text-anchor="start" x="221" y="-1137.2" font-family="Times New Roman,serif" font-size="14.00">speaker</text>
<text text-anchor="start" x="218" y="-1121.45" font-family="Times New Roman,serif" font-size="14.00">(Source)</text>
</g>
<!-- speaker&#45;&gt;dup0 -->
<g id="edge12" class="edge">
<title>speaker:i&#45;&gt;dup0</title>
<path fill="none" stroke="black" d="M242.38,-1114.12C242.38,-1093.09 242.38,-1060.81 242.38,-1046.4"/>
<polygon fill="black" stroke="black" points="244.13,-1046.71 242.38,-1041.71 240.63,-1046.71 244.13,-1046.71"/>
<text text-anchor="start" x="242.38" y="-1082.5" font-family="Times New Roman,serif" font-size="10.00">s16(256)</text>
<text text-anchor="start" x="218.38" y="-1096.72" font-family="Times New Roman,serif" font-size="12.00" fill="blue">256</text>
</g>
<!-- th_add_q151&#45;&gt;abf -->
<g id="edge3" class="edge">
<title>th_add_q151:o&#45;&gt;abf:l</title>
<path fill="none" stroke="black" d="M85.38,-871.5C85.38,-829.47 113.26,-808.36 154,-806.4"/>
<polygon fill="black" stroke="black" points="153.9,-808.15 158.86,-806.29 153.82,-804.65 153.9,-808.15"/>
<text text-anchor="start" x="92.38" y="-841.5" font-family="Times New Roman,serif" font-size="10.00">s16(256)</text>
<text text-anchor="start" x="136.38" y="-815.1" font-family="Times New Roman,serif" font-size="12.00" fill="blue">256</text>
<text text-anchor="start" x="61.38" y="-854.1" font-family="Times New Roman,serif" font-size="12.00" fill="blue">256</text>
</g>
<!-- th_add_q152&#45;&gt;abf -->
<g id="edge4" class="edge">
<title>th_add_q152:o&#45;&gt;abf:r</title>
<path fill="none" stroke="black" d="M196.38,-871.5C196.38,-850.45 196.38,-843.71 196.38,-825.35"/>
<polygon fill="black" stroke="black" points="198.13,-825.76 196.38,-820.76 194.63,-825.76 198.13,-825.76"/>
<text text-anchor="start" x="196.38" y="-841.5" font-family="Times New Roman,serif" font-size="10.00">s16(256)</text>
<text text-anchor="start" x="172.38" y="-828.1" font-family="Times New Roman,serif" font-size="12.00" fill="blue">256</text>
<text text-anchor="start" x="172.38" y="-854.1" font-family="Times New Roman,serif" font-size="12.00" fill="blue">256</text>
</g>
</g>
</svg>
